<?xml version="1.0" encoding="UTF-8"?>
<svg id="Capa_1" data-name="Capa 1" xmlns="http://www.w3.org/2000/svg" viewBox="0 0 500.85 314.87">
  <defs>
    <style>
      .cls-1 {
        fill: #333;
      }

      .cls-1, .cls-2 {
        stroke-width: 0px;
      }

      .cls-2 {
        fill: #fff;
      }
    </style>
  </defs>
  <path class="cls-1" d="M480.81,192.36c.39-.39.78-.88,1.17-1.27.29-.29.49-.59.78-.78.49-.49.88-.98,1.37-1.56.2-.2.29-.39.49-.59.59-.68,1.17-1.37,1.66-2.15.2-.29.39-.59.68-.88.29-.49.68-.88.98-1.37.2-.29.49-.68.68-.98.29-.39.59-.88.88-1.37.2-.39.49-.68.68-1.08.29-.49.59-.88.78-1.37.2-.39.39-.68.68-1.08.29-.49.49-.98.78-1.47.2-.39.39-.68.59-1.08.39-.78.78-1.66,1.17-2.44.2-.39.29-.68.49-1.08.2-.49.49-1.08.68-1.56.2-.39.29-.88.49-1.27.2-.49.39-.98.59-1.47s.29-.88.49-1.37.29-.98.49-1.47c.1-.49.29-.88.39-1.37s.29-.98.39-1.47.29-.88.39-1.37c.1-.59.29-1.17.39-1.66s.2-1.08.29-1.56c.1-.68.29-1.27.39-1.96,0-.1,0-.29.1-.39,0-.29.1-.59.1-.88.1-.98.29-1.86.39-2.84,0-.2,0-.29.1-.49.1-.98.2-1.86.29-2.84v-.39c.1-1.08.1-2.15.2-3.23v-3.81c-.2-14.38-9.78-28.75-24.55-28.16h0c-7.33.29-14.38,3.72-21.61,4.99-6.26,1.08-14.67,2.64-23.18,3.13-10.95.68-22.1-.1-29.44-5.28-14.08-9.88-7.04-33.84-21.22-43.42-3.42-2.35-7.14-2.84-10.95-2.64-5.48.29-11.15,2.15-16.53,2.44-.98.1-1.86.1-2.84,0-10.66-.68-20.15-8.7-28.07-15.65-13.89-12.13-12.62-33.05-28.46-44.5-.49-.39-.98-.68-1.47-1.08-.2-.1-.39-.29-.59-.39-.39-.29-.78-.49-1.17-.68-.29-.2-.59-.39-.78-.49,0,0-.1,0-.1-.1,0,0-.1,0-.1-.1-.39-.2-.78-.39-1.17-.68-.2-.1-.29-.2-.49-.29-.2-.1-.29-.2-.49-.29-.1,0-.1-.1-.2-.1-.39-.2-.78-.39-1.17-.59-.1-.1-.2-.1-.29-.2-.2-.1-.39-.2-.68-.29-.1,0-.1-.1-.2-.1-.39-.2-.78-.39-1.17-.49,0,0-.1,0-.1-.1-.29-.1-.59-.29-.78-.39-.1,0-.2-.1-.2-.1-.39-.2-.78-.29-1.17-.49-.29-.1-.59-.29-.98-.39-.1,0-.2-.1-.29-.1-.39-.1-.68-.29-1.08-.39-.29-.1-.68-.2-.98-.39-.1,0-.2-.1-.29-.1-.39-.1-.68-.2-1.08-.29s-.68-.2-1.08-.29c-.1,0-.2-.1-.29-.1-.29-.1-.68-.2-.98-.29-.39-.1-.68-.2-1.08-.29-.1,0-.2-.1-.39-.1-.29-.1-.68-.2-.98-.2-.39-.1-.68-.2-1.08-.2-.1,0-.29-.1-.39-.1-.29-.1-.68-.1-.98-.2-.39-.1-.68-.1-1.08-.2-.1,0-.29-.1-.39-.1-.29-.1-.68-.1-.98-.1-.39-.1-.68-.1-1.08-.1-.2,0-.29,0-.49-.1-.29,0-.68-.1-.98-.1s-.68-.1-.98-.1h-.49c-.29,0-.68,0-.98-.1-.29,0-.59,0-.88-.1h-5.67c-.39,0-.68,0-1.08.1h-1.47c-.39,0-.88.1-1.27.1h-.78c-.2,0-.29,0-.49.1-.29,0-.49.1-.78.1-.49.1-.98.1-1.47.2h-.39c-.2,0-.39.1-.59.1h-.1c-.39.1-.68.1-1.08.2-.2,0-.29.1-.49.1h-.29c-.1,0-.29.1-.39.1s-.29,0-.39.1c-.49.1-.98.2-1.47.29-.1,0-.2.1-.39.1h-.1c-.2.1-.39.1-.68.2s-.59.2-.88.2c-.1,0-.2.1-.39.1h-.2c-.49.1-.98.29-1.47.49h-.1c-.2.1-.39.1-.59.2-.1,0-.2.1-.29.1-.2.1-.39.1-.59.2-.1,0-.2.1-.2.1-.2.1-.29.1-.49.2q-.1,0-.2.1c-.29.1-.59.2-.78.29-.39.1-.68.29-1.08.39-.1,0-.2.1-.29.1-.2.1-.49.2-.68.29q-.1,0-.2.1h0c-.1,0-.2.1-.29.1-.29.1-.59.2-.78.39-.29.1-.59.29-.98.39h-.1c-.1.1-.29.1-.39.2-.29.2-.68.29-.98.49-.29.1-.59.29-.88.49-.1.1-.29.2-.39.2-.29.2-.68.39-.98.49h-.1c-.2.1-.39.2-.59.39-.1.1-.29.2-.39.2h0l-.1.1c-.39.29-.88.49-1.27.78-.29.2-.59.39-.88.49-.49.29-.98.59-1.37.98-.1,0-.1.1-.2.1-.2.1-.39.2-.49.39-.39.29-.78.59-1.17.78-.2.1-.29.2-.49.39s-.49.39-.68.49-.39.29-.49.39c-.29.29-.59.49-.98.78h0c-.29.2-.59.39-.78.68-9.39,8.02-16.53,18.87-26.5,26.01-5.28,3.81-11.44,6.16-17.7,6.36h-2.05c-.29,0-.49,0-.78-.1-.39,0-.78-.1-1.17-.1-.29,0-.49-.1-.78-.1-.39-.1-.78-.1-1.27-.2-.29-.1-.49-.1-.68-.2-.39-.1-.78-.2-1.27-.29-.2-.1-.49-.1-.68-.2-.39-.1-.88-.29-1.27-.49-.2-.1-.39-.2-.59-.29-.49-.2-.88-.39-1.37-.68-.2-.1-.29-.2-.49-.2-.59-.29-1.17-.68-1.86-1.08-9.49-6.26-14.67-13.98-26.31-16.53-.39-.1-.68-.1-1.08-.2-.68-.1-1.37-.2-2.05-.2-1.76-.1-3.42.1-5.18.49-.68.2-1.37.29-2.05.49-.2.1-.39.1-.59.2-.68.2-1.27.39-1.96.59-.2.1-.29.1-.49.2-.49.2-1.08.39-1.56.59-.2.1-.39.2-.49.2-.59.29-1.27.59-1.86.88-.2.1-.29.2-.49.29-.59.29-1.08.59-1.66.88-.1.1-.2.1-.29.2-.59.39-1.27.78-1.86,1.17-.1.1-.29.2-.39.29-1.27.78-2.54,1.66-3.72,2.64-.1.1-.2.1-.29.2-.59.49-1.17.98-1.86,1.47l-.1.1c-.59.49-1.08.98-1.66,1.47-.1.1-.2.2-.29.2-.1.1-.2.1-.2.2h0c-13.59,13.3-23.96,33.05-32.08,48.02-12.81,23.37-25.62,46.94-37.46,70.9v.1c-12.22,24.94-23.37,50.36-32.17,76.77-.98,2.93-1.96,6.36-.78,9.19.98,2.35,3.23,3.81,5.38,4.99,7.33,4.11,15.45,6.45,23.76,7.04,5.09.39,9.09-4.5,8.02-9.78-.39-2.15-.39-4.5.29-6.65,1.76-5.87,7.63-9.88,13.3-9.19,7.63.88,13.2,9,20.83,9.68,5.18.49,10.07-2.54,14.77-4.99,20.63-10.37,44.59-8.8,67.38-7.04,9.78.78,19.66,1.56,28.75,5.38,8.9,3.81,16.63,10.27,24.06,16.72,15.35,13.2,30.81,26.4,44.5,41.47,3.33,3.62,6.85,7.53,10.46,11.05,5.28,5.38,8.7,8.31,14.86,11.44,0,0,.1,0,.1.1,1.96,1.08,4.11,1.37,6.06.98,1.47-.2,2.93-.78,4.21-1.66.1-.1.2-.1.2-.2.1-.1.2-.1.2-.2.88-.68,1.66-1.56,2.35-2.44.98-1.37,1.66-3.03,1.96-4.99.88-5.77,3.91-11.34,7.92-15.45,3.91-3.91,8.31-7.43,13.01-10.66,12.52-8.7,27.09-15.65,39.02-23.57,3.72-2.44,7.43-4.69,11.15-6.85,25.72-14.67,53.59-22.98,81.07-33.35.29-.1.68-.29.98-.39.59-.2,1.08-.39,1.66-.68.39-.2.78-.29,1.27-.49s.98-.39,1.47-.59c.39-.2.78-.39,1.27-.59.49-.2.98-.39,1.47-.68l1.17-.59c.49-.2.98-.49,1.47-.78.39-.2.68-.39,1.08-.59l1.76-.88c.29-.1.49-.29.78-.39.78-.49,1.66-.88,2.44-1.37.29-.2.49-.29.78-.49.59-.29,1.17-.68,1.66-.98.29-.2.59-.39.98-.59.49-.29.98-.59,1.47-.98.29-.2.68-.39.98-.68.49-.29.98-.68,1.47-.98.29-.2.59-.39.88-.68.49-.39.98-.78,1.56-1.17.29-.2.49-.39.78-.59.78-.59,1.47-1.17,2.15-1.76.1-.1.29-.2.39-.39.59-.49,1.17-.98,1.76-1.47.29-.2.49-.49.78-.68.39-.39.88-.78,1.27-1.17.29-.29.59-.49.88-.78.39-.39.78-.78,1.17-1.17.29.1.59-.1.88-.39Z"/>
  <circle class="cls-2" cx="114.77" cy="197.29" r="9.71"/>
  <circle class="cls-2" cx="171.52" cy="177.88" r="9.71"/>
  <circle class="cls-2" cx="183.63" cy="145.89" r="9.71"/>
  <circle class="cls-2" cx="199.45" cy="69.53" r="9.71"/>
  <circle class="cls-2" cx="241.66" cy="42.04" r="9.71"/>
  <circle class="cls-2" cx="335.59" cy="98.77" r="9.71"/>
  <circle class="cls-2" cx="351.3" cy="129.64" r="9.71"/>
  <circle class="cls-2" cx="405.41" cy="197.29" r="9.71"/>
  <circle class="cls-2" cx="429.85" cy="139.35" r="9.71"/>
  <circle class="cls-2" cx="222.25" cy="221.82" r="9.71"/>
  <circle class="cls-2" cx="271.88" cy="256.62" r="9.71"/>
  <circle class="cls-2" cx="329.92" cy="231.53" r="9.71"/>
</svg>